<svg xmlns="http://www.w3.org/2000/svg" width="640" height="360" viewBox="0 0 640 360">
<rect x="0" y="0" width="640" height="360" fill="#ffffff"/>
<text x="320.0" y="24" text-anchor="middle" font-size="14" fill="#111827">Quality scores (R1)</text>
<text x="320.0" y="352" text-anchor="middle" font-size="12" fill="#6b7280">Mean quality (Phred)</text>
<text x="10" y="40" font-size="11" fill="#6b7280">n=63073 / 37619</text>
<line x1="48" y1="312" x2="592" y2="312" stroke="#d1d5db"/>
<line x1="48" y1="48" x2="48" y2="312" stroke="#d1d5db"/>
<rect x="472" y="28" width="10" height="10" fill="#60a5fa"/>
<text x="488" y="37" font-size="11" fill="#6b7280">before</text>
<rect x="532" y="28" width="10" height="10" fill="#fb7185"/>
<text x="548" y="37" font-size="11" fill="#6b7280">after</text>
<rect x="48.00" y="312.00" width="5.63" height="0.00" fill="#60a5fa"/>
<rect x="55.63" y="312.00" width="5.63" height="0.00" fill="#fb7185"/>
<rect x="61.27" y="312.00" width="5.63" height="0.00" fill="#60a5fa"/>
<rect x="68.90" y="312.00" width="5.63" height="0.00" fill="#fb7185"/>
<rect x="74.54" y="311.89" width="5.63" height="0.11" fill="#60a5fa"/>
<rect x="82.17" y="312.00" width="5.63" height="0.00" fill="#fb7185"/>
<rect x="87.80" y="311.94" width="5.63" height="0.06" fill="#60a5fa"/>
<rect x="95.44" y="312.00" width="5.63" height="0.00" fill="#fb7185"/>
<rect x="101.07" y="311.52" width="5.63" height="0.48" fill="#60a5fa"/>
<rect x="108.71" y="312.00" width="5.63" height="0.00" fill="#fb7185"/>
<rect x="114.34" y="310.08" width="5.63" height="1.92" fill="#60a5fa"/>
<rect x="121.98" y="312.00" width="5.63" height="0.00" fill="#fb7185"/>
<rect x="127.61" y="307.44" width="5.63" height="4.56" fill="#60a5fa"/>
<rect x="135.24" y="312.00" width="5.63" height="0.00" fill="#fb7185"/>
<rect x="140.88" y="307.57" width="5.63" height="4.43" fill="#60a5fa"/>
<rect x="148.51" y="312.00" width="5.63" height="0.00" fill="#fb7185"/>
<rect x="154.15" y="307.70" width="5.63" height="4.30" fill="#60a5fa"/>
<rect x="161.78" y="312.00" width="5.63" height="0.00" fill="#fb7185"/>
<rect x="167.41" y="306.99" width="5.63" height="5.01" fill="#60a5fa"/>
<rect x="175.05" y="312.00" width="5.63" height="0.00" fill="#fb7185"/>
<rect x="180.68" y="307.27" width="5.63" height="4.73" fill="#60a5fa"/>
<rect x="188.32" y="312.00" width="5.63" height="0.00" fill="#fb7185"/>
<rect x="193.95" y="307.22" width="5.63" height="4.78" fill="#60a5fa"/>
<rect x="201.59" y="312.00" width="5.63" height="0.00" fill="#fb7185"/>
<rect x="207.22" y="305.78" width="5.63" height="6.22" fill="#60a5fa"/>
<rect x="214.85" y="312.00" width="5.63" height="0.00" fill="#fb7185"/>
<rect x="220.49" y="304.41" width="5.63" height="7.59" fill="#60a5fa"/>
<rect x="228.12" y="312.00" width="5.63" height="0.00" fill="#fb7185"/>
<rect x="233.76" y="302.60" width="5.63" height="9.40" fill="#60a5fa"/>
<rect x="241.39" y="312.00" width="5.63" height="0.00" fill="#fb7185"/>
<rect x="247.02" y="299.29" width="5.63" height="12.71" fill="#60a5fa"/>
<rect x="254.66" y="312.00" width="5.63" height="0.00" fill="#fb7185"/>
<rect x="260.29" y="298.99" width="5.63" height="13.01" fill="#60a5fa"/>
<rect x="267.93" y="312.00" width="5.63" height="0.00" fill="#fb7185"/>
<rect x="273.56" y="303.27" width="5.63" height="8.73" fill="#60a5fa"/>
<rect x="281.20" y="312.00" width="5.63" height="0.00" fill="#fb7185"/>
<rect x="286.83" y="303.22" width="5.63" height="8.78" fill="#60a5fa"/>
<rect x="294.46" y="312.00" width="5.63" height="0.00" fill="#fb7185"/>
<rect x="300.10" y="302.10" width="5.63" height="9.90" fill="#60a5fa"/>
<rect x="307.73" y="312.00" width="5.63" height="0.00" fill="#fb7185"/>
<rect x="313.37" y="303.48" width="5.63" height="8.52" fill="#60a5fa"/>
<rect x="321.00" y="312.00" width="5.63" height="0.00" fill="#fb7185"/>
<rect x="326.63" y="301.28" width="5.63" height="10.72" fill="#60a5fa"/>
<rect x="334.27" y="312.00" width="5.63" height="0.00" fill="#fb7185"/>
<rect x="339.90" y="297.43" width="5.63" height="14.57" fill="#60a5fa"/>
<rect x="347.54" y="312.00" width="5.63" height="0.00" fill="#fb7185"/>
<rect x="353.17" y="290.82" width="5.63" height="21.18" fill="#60a5fa"/>
<rect x="360.80" y="312.00" width="5.63" height="0.00" fill="#fb7185"/>
<rect x="366.44" y="295.29" width="5.63" height="16.71" fill="#60a5fa"/>
<rect x="374.07" y="312.00" width="5.63" height="0.00" fill="#fb7185"/>
<rect x="379.71" y="293.24" width="5.63" height="18.76" fill="#60a5fa"/>
<rect x="387.34" y="312.00" width="5.63" height="0.00" fill="#fb7185"/>
<rect x="392.98" y="289.91" width="5.63" height="22.09" fill="#60a5fa"/>
<rect x="400.61" y="312.00" width="5.63" height="0.00" fill="#fb7185"/>
<rect x="406.24" y="286.13" width="5.63" height="25.87" fill="#60a5fa"/>
<rect x="413.88" y="312.00" width="5.63" height="0.00" fill="#fb7185"/>
<rect x="419.51" y="282.84" width="5.63" height="29.16" fill="#60a5fa"/>
<rect x="427.15" y="312.00" width="5.63" height="0.00" fill="#fb7185"/>
<rect x="432.78" y="278.13" width="5.63" height="33.87" fill="#60a5fa"/>
<rect x="440.41" y="311.87" width="5.63" height="0.13" fill="#fb7185"/>
<rect x="446.05" y="269.10" width="5.63" height="42.90" fill="#60a5fa"/>
<rect x="453.68" y="310.21" width="5.63" height="1.79" fill="#fb7185"/>
<rect x="459.32" y="260.64" width="5.63" height="51.36" fill="#60a5fa"/>
<rect x="466.95" y="302.30" width="5.63" height="9.70" fill="#fb7185"/>
<rect x="472.59" y="244.24" width="5.63" height="67.76" fill="#60a5fa"/>
<rect x="480.22" y="286.93" width="5.63" height="25.07" fill="#fb7185"/>
<rect x="485.85" y="226.51" width="5.63" height="85.49" fill="#60a5fa"/>
<rect x="493.49" y="265.74" width="5.63" height="46.26" fill="#fb7185"/>
<rect x="499.12" y="196.43" width="5.63" height="115.57" fill="#60a5fa"/>
<rect x="506.76" y="231.27" width="5.63" height="80.73" fill="#fb7185"/>
<rect x="512.39" y="155.47" width="5.63" height="156.53" fill="#60a5fa"/>
<rect x="520.02" y="183.50" width="5.63" height="128.50" fill="#fb7185"/>
<rect x="525.66" y="81.65" width="5.63" height="230.35" fill="#60a5fa"/>
<rect x="533.29" y="95.29" width="5.63" height="216.71" fill="#fb7185"/>
<rect x="538.93" y="48.00" width="5.63" height="264.00" fill="#60a5fa"/>
<rect x="546.56" y="48.93" width="5.63" height="263.07" fill="#fb7185"/>
<rect x="552.20" y="270.85" width="5.63" height="41.15" fill="#60a5fa"/>
<rect x="559.83" y="270.85" width="5.63" height="41.15" fill="#fb7185"/>
<rect x="565.46" y="312.00" width="5.63" height="0.00" fill="#60a5fa"/>
<rect x="573.10" y="312.00" width="5.63" height="0.00" fill="#fb7185"/>
<rect x="578.73" y="312.00" width="5.63" height="0.00" fill="#60a5fa"/>
<rect x="586.37" y="312.00" width="5.63" height="0.00" fill="#fb7185"/>
<text x="48" y="328" font-size="11" fill="#6b7280">0</text>
<text x="592" y="328" text-anchor="end" font-size="11" fill="#6b7280">40</text>
</svg>